<svg width="24" height="24" viewBox="0 0 24 24" fill="none" xmlns="http://www.w3.org/2000/svg">
<path d="M7.2124 2.93646C6.34935 2.62085 4.53696 2.65241 4.19174 5.30351C3.76022 8.61739 4.19195 17.1387 4.19174 19.5056C4.19161 21.0027 4.62284 21.8728 6.78104 22.3461C8.93869 22.8193 19.9185 24.2339 19.7267 20.4525C19.2946 11.9311 21.8843 2.46286 16.7061 2.93627M8.625 14.4502C8.73868 15.2736 10.3391 18.7795 11.0692 16.806C11.9408 14.4502 12.7697 12.0102 16.5 9.70019M9.51813 1.44057C11.3075 0.591372 14.98 0.989835 14.98 2.46286C14.98 4.35651 14.98 4.82998 13.2539 4.82998C11.5278 4.82998 9.8017 5.30339 9.37018 4.35657C8.97395 3.48719 8.94154 2.21855 9.27296 1.65041C9.32849 1.55521 9.41856 1.48782 9.51813 1.44057Z" stroke="black" stroke-linecap="round"/>
</svg>
