<svg width="24" height="24" viewBox="0 0 24 24" fill="none" xmlns="http://www.w3.org/2000/svg">
<path d="M13.5798 1.08181C12.9842 0.986663 12.4805 0.981138 12.0599 1.03127C11.6052 1.08547 11.2476 1.20472 10.9764 1.3461C10.7463 1.46599 10.5783 1.6018 10.4657 1.72734C10.4101 1.78929 10.368 1.84874 10.3386 1.90255L10.1865 2.18727L10.0409 2.45971L9.89538 2.73216L9.70498 3.08851L9.45457 3.55718L9.24244 3.95421L9.10212 4.21685C9.08075 4.25685 9.11088 4.30426 9.15775 4.30341C10.8429 4.27285 14.287 4.87253 15.3604 7.11838C15.3823 7.16428 15.4511 7.16688 15.4747 7.12173L15.6908 6.70728L15.7813 6.53386L15.9122 6.2765L16.1529 5.80355L16.3582 5.4L16.4701 5.18022L16.5819 4.96045L16.6848 4.75815L16.7878 4.55585L16.9937 4.15125C17.0005 4.13777 17.002 4.12289 16.9972 4.10861C16.8992 3.81456 16.7147 3.41889 16.4377 3.00935C15.8786 2.18269 14.9426 1.29956 13.5798 1.08181Z" fill="black"/>
<path d="M6.30228 22.9095H21M3 19.8413V22.7983C3.19569 23.2673 3.65535 22.7983 3.9173 22.5966L6.30228 21.0138M8.56495 19.4312L3.48523 22.9095C3.28213 23.0486 3 22.9094 3 22.6701V16.2655M6 13.5L8.56495 8.5M11 8L7 15.5M12 10L9.45457 15M8.30096 5.8644L3.1822 15.8557C3.15896 15.9011 3.20233 15.9525 3.25396 15.9421C4.02102 15.7864 5.33465 15.8685 5.44071 17.2724C5.44419 17.3185 5.49832 17.3464 5.53951 17.3224C6.21494 16.9288 7.37191 16.6435 7.34685 18.2405C7.34604 18.2918 7.40917 18.3234 7.4519 18.2925C8.04951 17.8603 9.03555 17.4894 9.11223 18.8087C9.11589 18.8718 9.21053 18.894 9.23959 18.8373L14.3955 9.02385M8.30096 5.8644L8.99313 4.48202M8.30096 5.8644C8.28154 5.90319 8.31212 5.94824 8.357 5.94908C12.3307 6.02348 13.9474 7.93745 14.2727 9.00986C14.2889 9.06327 14.3683 9.07296 14.3955 9.02385M14.3955 9.02385L15.3531 7.29598M10.3386 1.90255L10.1865 2.18727M10.3386 1.90255C10.368 1.84874 10.4101 1.78929 10.4657 1.72734M10.3386 1.90255C11.6823 1.94047 14.8327 2.56467 16.6848 4.75815M16.9972 4.10861C17.002 4.12289 17.0005 4.13777 16.9937 4.15125L16.7878 4.55585M16.9972 4.10861C15.2385 2.02967 12.2505 1.40071 10.9764 1.3461M16.9972 4.10861C16.8992 3.81456 16.7147 3.41889 16.4377 3.00935M9.24244 3.95421L9.10212 4.21685C9.08075 4.25685 9.11088 4.30426 9.15775 4.30341C10.8429 4.27285 14.287 4.87253 15.3604 7.11838C15.3823 7.16428 15.4511 7.16688 15.4747 7.12173L15.6908 6.70728M9.24244 3.95421C10.7611 3.84099 14.1768 4.2331 15.6908 6.70728M9.24244 3.95421L9.45457 3.55718M15.6908 6.70728L15.7813 6.53386L15.9122 6.2765M9.45457 3.55718C10.8556 3.47245 14.1087 3.89769 15.9122 6.2765M9.45457 3.55718L9.70498 3.08851M15.9122 6.2765L16.1529 5.80355M9.70498 3.08851C10.9886 3.02804 14.0752 3.48639 16.1529 5.80355M9.70498 3.08851L9.89538 2.73216M16.1529 5.80355L16.3582 5.4M9.89538 2.73216C11.2524 2.70477 14.4448 3.2 16.3582 5.4M9.89538 2.73216L10.0409 2.45971M16.3582 5.4L16.4701 5.18022M10.1865 2.18727C11.5956 2.23181 14.8474 2.84881 16.5819 4.96045M10.1865 2.18727L10.0409 2.45971M16.5819 4.96045L16.4701 5.18022M16.5819 4.96045L16.6848 4.75815M10.4657 1.72734C11.919 1.77627 15.218 2.41047 16.7878 4.55585M10.4657 1.72734C10.5783 1.6018 10.7463 1.46599 10.9764 1.3461M16.7878 4.55585L16.6848 4.75815M10.9764 1.3461C11.2476 1.20472 11.6052 1.08547 12.0599 1.03127M12.0599 1.03127C12.4805 0.981138 12.9842 0.986663 13.5798 1.08181C14.9426 1.29956 15.8786 2.18269 16.4377 3.00935M12.0599 1.03127C13.01 1.17513 15.2158 1.77215 16.4377 3.00935M10.0409 2.45971C11.3407 2.42662 14.4461 2.9244 16.4701 5.18022" stroke="black" stroke-linecap="round"/>
</svg>
