<svg width="241" height="151" viewBox="0 0 241 151" fill="none" xmlns="http://www.w3.org/2000/svg">
<path d="M155.354 41.0165H138.428L137.63 48.5488H155.833L155.354 41.0165Z" fill="black"/>
<path d="M156.841 55.139H136.997L136.061 63.2991H157.402L156.841 55.139Z" fill="black"/>
<path d="M158.014 70.2034H135.251L134.178 78.9911H158.658L158.014 70.2034Z" fill="black"/>
<path d="M159.317 86.2097H132.912L131.667 95.3113H155.005L159.913 92.8005L159.317 86.2097Z" fill="black"/>
<path d="M130.098 108.649L139.199 34.7382M155.206 34.7382L159.913 92.0155" stroke="black" stroke-width="2" stroke-linecap="round"/>
<path d="M136.218 34.7382H158.972" stroke="black" stroke-width="2" stroke-linecap="round"/>
<path d="M136.218 20.6157H158.972" stroke="black" stroke-width="2" stroke-linecap="round"/>
<path d="M139.514 24.0682V30.0314" stroke="black" stroke-width="2" stroke-linecap="round"/>
<path d="M154.892 24.0682V30.0314" stroke="black" stroke-width="2" stroke-linecap="round"/>
<circle cx="147.673" cy="26.8929" r="2.82464" fill="black"/>
<rect x="144.849" y="15.2793" width="5.64927" height="2.82464" rx="1.41232" fill="black"/>
<path d="M122.408 19.5171L61.5215 1" stroke="black" stroke-width="2" stroke-linecap="round"/>
<path d="M119.741 28.1474L7.54004 23.5966" stroke="black" stroke-width="2" stroke-linecap="round"/>
<path d="M118.172 34.2679L1.41992 70.0467" stroke="black" stroke-width="2" stroke-linecap="round"/>
<path d="M124.292 43.5272L31.8633 109.435" stroke="black" stroke-width="2" stroke-linecap="round"/>
<path d="M63.5615 134.765C69.3905 132.986 112.863 120.912 128.391 110.247" stroke="black" stroke-width="2" stroke-linecap="round"/>
<path d="M104.825 133.15C112.474 120.882 121.917 112.689 140.826 102.89C164.462 90.6423 169.862 88.4922 179.972 73.3848" stroke="black" stroke-width="2" stroke-linecap="round"/>
<path d="M179.972 73.3835C182.099 77.5866 187.51 88.3309 191.457 94.0798M187.203 91.9064C191.204 93.4534 199.66 98.5422 201.479 106.521C203.298 114.5 210.658 120.227 213.631 123.638" stroke="black" stroke-width="2" stroke-linecap="round"/>
<path d="M188.262 105.878C191.107 110.27 196.434 115.873 213.218 122.853" stroke="black" stroke-width="2" stroke-linecap="round"/>
<path d="M235.262 148.124C230.306 142.066 218.799 128.415 212.412 122.273" stroke="black" stroke-width="2" stroke-linecap="round"/>
<path d="M179.972 73.3835C178.521 79.2497 175.974 92.4466 179.606 99.8952" stroke="black" stroke-width="2" stroke-linecap="round"/>
<path d="M177.401 94.2785C174.215 95.974 170.154 102.189 179.716 115.379" stroke="black" stroke-width="2" stroke-linecap="round"/>
<path d="M170.038 117.954C172.61 118.222 178.127 118.141 179.622 115.679" stroke="black" stroke-width="2" stroke-linecap="round"/>
<path d="M173.509 142.702L170.039 117.954" stroke="black" stroke-width="2" stroke-linecap="round"/>
</svg>
