<svg width="187" height="150" viewBox="0 0 187 150" fill="none" xmlns="http://www.w3.org/2000/svg">
<path d="M118.355 62.5456C123.896 96.7092 106.998 127.401 81.2032 131.584C55.4088 135.768 29.6768 111.99 24.1361 77.8261C18.5954 43.6625 35.4934 12.9707 61.2879 8.78728C87.0824 4.60391 112.814 28.382 118.355 62.5456Z" stroke="black" stroke-width="2"/>
<path d="M107.638 63.6563C109.757 76.7211 107.74 89.1474 102.815 98.6698C97.8893 108.192 90.0957 114.752 80.6502 116.284C71.2047 117.816 61.7373 114.055 54.0547 106.578C46.3722 99.1002 40.5315 87.9482 38.4126 74.8834C36.2937 61.8186 38.3105 49.3923 43.2359 39.8699C48.1615 30.3474 55.9551 23.7877 65.4006 22.2558C74.8461 20.724 84.3135 24.4843 91.9961 31.962C99.6786 39.4396 105.519 50.5915 107.638 63.6563Z" stroke="black" stroke-width="2"/>
<ellipse cx="76.3533" cy="69.7912" rx="18.1809" ry="24.5142" transform="rotate(-9.21208 76.3533 69.7912)" fill="black"/>
<path d="M34.5776 125.171C67.409 156.772 103.934 138.304 111.732 118.4C108.259 138.254 84.7326 149.518 65.1518 150C43.606 150 16.7252 132.148 9.33804 115.937C-17.8462 56.2834 23.5653 14.2962 44.2219 8.414C5.43946 26.6766 -0.70833 91.2084 34.5776 125.171Z" fill="black"/>
<path d="M76.0273 64.4322L134.509 27.0416L146.205 19.6992" stroke="black" stroke-width="2" stroke-linecap="round"/>
<path d="M133.072 24.0087L134.431 14.6895C134.48 14.3583 134.69 14.0732 134.993 13.93L158.419 2.84303C159.312 2.42037 160.211 3.41094 159.705 4.25936L154.608 12.8003C154.232 13.4312 154.641 14.2391 155.373 14.3083L166.178 15.3304C167.115 15.419 167.422 16.6357 166.638 17.158L146.605 30.5132C146.352 30.6819 146.036 30.7263 145.746 30.6337L134.509 27.042" stroke="black" stroke-width="2" stroke-linecap="round"/>
<path d="M78.2841 68.7419L151.491 42.5223L164.481 37.8353" stroke="black" stroke-width="2" stroke-linecap="round"/>
<path d="M150.732 39.2525L154.042 30.4356C154.16 30.1222 154.427 29.8885 154.753 29.8129L180 23.9616C180.963 23.7385 181.631 24.8978 180.956 25.6191L174.159 32.8806C173.657 33.417 173.886 34.2936 174.586 34.5167L184.926 37.8134C185.823 38.0994 185.864 39.3534 184.988 39.6971L162.573 48.4864C162.289 48.5974 161.971 48.5735 161.708 48.4214L151.491 42.5219" stroke="black" stroke-width="2" stroke-linecap="round"/>
<path d="M135.418 60.3134L139.829 52.9619C140.001 52.6763 140.303 52.4948 140.635 52.4777L163.574 51.2994C164.56 51.2487 165.015 52.5063 164.225 53.0984L157.306 58.2819C156.722 58.7196 156.789 59.6157 157.431 59.9623L165.666 64.4035C166.489 64.8478 166.306 66.0792 165.388 66.264L144.355 70.5003C144.051 70.5614 143.737 70.4786 143.503 70.276L135.529 63.3722" stroke="black" stroke-width="2" stroke-linecap="round"/>
<path d="M79.5157 73.0497L135.529 63.3706L147.808 61.2487" stroke="black" stroke-width="2" stroke-linecap="round"/>
</svg>
